<svg version="1.1" id="Layer_1" xmlns="http://www.w3.org/2000/svg" xmlns:xlink="http://www.w3.org/1999/xlink" x="0px" y="0px"
	 width="100%" viewBox="0 0 500 500" enable-background="new 0 0 500 500" xml:space="preserve">
<path fill="#000000" opacity="1.000000" stroke="none" 
	d="
M273.000000,501.000000 
	C182.000015,501.000000 91.500046,501.000000 1.000049,501.000000 
	C1.000032,334.333405 1.000032,167.666794 1.000016,1.000138 
	C167.666565,1.000092 334.333130,1.000092 500.999756,1.000046 
	C500.999847,167.666519 500.999847,334.333038 500.999939,500.999786 
	C425.166656,501.000000 349.333344,501.000000 273.000000,501.000000 
M134.939682,99.553848 
	C134.939697,110.880516 134.794342,122.210915 135.085342,133.530106 
	C135.132858,135.377701 137.079056,138.727158 138.194809,138.747116 
	C145.923981,138.885284 153.778992,139.034454 161.375748,137.818817 
	C171.879791,136.137955 179.708298,126.167900 180.023239,115.728897 
	C180.280640,107.196655 172.209778,94.607338 164.050354,93.305145 
	C154.566498,91.791573 144.795944,92.074493 134.939682,91.566895 
	C134.939682,94.598129 134.939682,96.583054 134.939682,99.553848 
M85.029549,116.317154 
	C85.335777,116.898674 85.832779,117.452950 85.920273,118.065697 
	C88.013191,132.723953 95.114494,138.777466 109.655914,139.062790 
	C123.595993,139.336334 131.157166,128.640121 131.827988,117.052605 
	C132.626373,103.261658 124.752907,92.371376 109.031578,91.122421 
	C101.583008,90.530685 92.288177,93.790916 89.033783,102.123344 
	C87.348961,106.437096 86.310303,111.003227 85.029549,116.317154 
M200.012207,127.477097 
	C199.559235,125.512756 199.106277,123.548416 198.519821,121.005112 
	C201.867294,121.005112 204.515762,121.206894 207.113617,120.931404 
	C208.739685,120.758972 211.571808,120.001305 211.647141,119.276077 
	C211.941162,116.445473 211.863586,113.320396 210.839630,110.734222 
	C210.427841,109.694237 207.231079,109.488213 205.279648,109.401398 
	C203.288849,109.312820 201.270782,109.836647 199.351440,110.081299 
	C199.351440,107.299561 199.351440,105.242119 199.351440,102.999008 
	C204.337753,102.999008 208.985916,103.000557 213.634064,102.998627 
	C219.816132,102.996063 222.419189,98.144501 219.143295,92.530312 
	C218.701996,91.774010 217.508224,91.014915 216.656052,91.007141 
	C205.548920,90.905792 194.440567,90.939865 182.957840,90.939865 
	C182.957840,106.160599 182.990356,120.938690 182.931763,135.716415 
	C182.919312,138.857437 184.776001,139.094894 187.188187,139.082703 
	C197.012924,139.033020 206.840576,138.931229 216.661972,139.119186 
	C221.331894,139.208557 220.843475,136.164200 221.023422,133.195129 
	C221.218475,129.976685 220.866165,127.764702 216.625702,127.909081 
	C211.375748,128.087830 206.102707,127.588806 200.012207,127.477097 
M73.925041,94.381966 
	C67.406693,90.224297 60.021973,90.077728 53.369678,92.444519 
	C42.531914,96.300438 36.685688,110.450653 40.520962,121.976326 
	C45.504490,136.952713 54.117645,140.671036 67.778236,138.808029 
	C75.768181,137.718353 84.458649,129.644836 82.690826,122.076317 
	C78.987839,121.632851 75.157204,121.174095 71.650375,120.754120 
	C70.657410,122.622917 70.135338,124.041840 69.253654,125.182899 
	C66.622253,128.588501 59.437637,129.347641 58.135342,126.191238 
	C55.183422,119.036621 54.553226,111.570061 58.394135,104.551811 
	C59.198425,103.082176 62.199688,102.253319 64.210251,102.213074 
	C65.443832,102.188385 67.746964,104.188957 67.786774,105.341660 
	C67.918823,109.165138 70.178604,109.090492 72.819893,109.012177 
	C74.980843,108.948105 77.145546,108.977844 79.308037,109.006889 
	C82.274651,109.046738 83.566444,108.263107 82.497414,104.825592 
	C81.101318,100.336411 78.573547,97.069435 73.925041,94.381966 
z"/>
<path fill="#FFDF2E" opacity="1.000000" stroke="none" 
	d="
M134.939682,99.060913 
	C134.939682,96.583054 134.939682,94.598129 134.939682,91.566895 
	C144.795944,92.074493 154.566498,91.791573 164.050354,93.305145 
	C172.209778,94.607338 180.280640,107.196655 180.023239,115.728897 
	C179.708298,126.167900 171.879791,136.137955 161.375748,137.818817 
	C153.778992,139.034454 145.923981,138.885284 138.194809,138.747116 
	C137.079056,138.727158 135.132858,135.377701 135.085342,133.530106 
	C134.794342,122.210915 134.939697,110.880516 134.939682,99.060913 
M162.996582,116.194008 
	C163.006607,105.979576 159.737961,102.412216 151.285278,103.516045 
	C151.285278,111.230598 151.285278,118.954628 151.285278,126.658249 
	C158.958267,127.264885 160.589355,126.096085 162.017120,119.260521 
	C162.177094,118.494545 162.638565,117.791534 162.996582,116.194008 
z"/>
<path fill="#FFDF2E" opacity="1.000000" stroke="none" 
	d="
M85.004631,115.886246 
	C86.310303,111.003227 87.348961,106.437096 89.033783,102.123344 
	C92.288177,93.790916 101.583008,90.530685 109.031578,91.122421 
	C124.752907,92.371376 132.626373,103.261658 131.827988,117.052605 
	C131.157166,128.640121 123.595993,139.336334 109.655914,139.062790 
	C95.114494,138.777466 88.013191,132.723953 85.920273,118.065697 
	C85.832779,117.452950 85.335777,116.898674 85.004631,115.886246 
M108.555367,101.999664 
	C105.295509,101.957809 103.185455,103.601524 103.052971,106.782394 
	C102.812958,112.544426 102.638123,118.355896 103.181725,124.075867 
	C103.348526,125.831039 106.333611,128.923065 107.356285,128.671509 
	C109.784920,128.074142 113.466934,126.054100 113.699303,124.233360 
	C114.486237,118.067253 114.244270,111.719368 113.782166,105.486412 
	C113.688454,104.222389 110.919312,103.156715 108.555367,101.999664 
z"/>
<path fill="#FFDF2E" opacity="1.000000" stroke="none" 
	d="
M200.425934,127.429840 
	C206.102707,127.588806 211.375748,128.087830 216.625702,127.909081 
	C220.866165,127.764702 221.218475,129.976685 221.023422,133.195129 
	C220.843475,136.164200 221.331894,139.208557 216.661972,139.119186 
	C206.840576,138.931229 197.012924,139.033020 187.188187,139.082703 
	C184.776001,139.094894 182.919312,138.857437 182.931763,135.716415 
	C182.990356,120.938690 182.957840,106.160599 182.957840,90.939865 
	C194.440567,90.939865 205.548920,90.905792 216.656052,91.007141 
	C217.508224,91.014915 218.701996,91.774010 219.143295,92.530312 
	C222.419189,98.144501 219.816132,102.996063 213.634064,102.998627 
	C208.985916,103.000557 204.337753,102.999008 199.351440,102.999008 
	C199.351440,105.242119 199.351440,107.299561 199.351440,110.081299 
	C201.270782,109.836647 203.288849,109.312820 205.279648,109.401398 
	C207.231079,109.488213 210.427841,109.694237 210.839630,110.734222 
	C211.863586,113.320396 211.941162,116.445473 211.647141,119.276077 
	C211.571808,120.001305 208.739685,120.758972 207.113617,120.931404 
	C204.515762,121.206894 201.867294,121.005112 198.519821,121.005112 
	C199.106277,123.548416 199.559235,125.512756 200.425934,127.429840 
z"/>
<path fill="#FFDF2E" opacity="1.000000" stroke="none" 
	d="
M74.199814,94.650902 
	C78.573547,97.069435 81.101318,100.336411 82.497414,104.825592 
	C83.566444,108.263107 82.274651,109.046738 79.308037,109.006889 
	C77.145546,108.977844 74.980843,108.948105 72.819893,109.012177 
	C70.178604,109.090492 67.918823,109.165138 67.786774,105.341660 
	C67.746964,104.188957 65.443832,102.188385 64.210251,102.213074 
	C62.199688,102.253319 59.198425,103.082176 58.394135,104.551811 
	C54.553226,111.570061 55.183422,119.036621 58.135342,126.191238 
	C59.437637,129.347641 66.622253,128.588501 69.253654,125.182899 
	C70.135338,124.041840 70.657410,122.622917 71.650375,120.754120 
	C75.157204,121.174095 78.987839,121.632851 82.690826,122.076317 
	C84.458649,129.644836 75.768181,137.718353 67.778236,138.808029 
	C54.117645,140.671036 45.504490,136.952713 40.520962,121.976326 
	C36.685688,110.450653 42.531914,96.300438 53.369678,92.444519 
	C60.021973,90.077728 67.406693,90.224297 74.199814,94.650902 
z"/>
<path fill="#000000" opacity="1.000000" stroke="none" 
	d="
M162.978409,116.626671 
	C162.638565,117.791534 162.177094,118.494545 162.017120,119.260521 
	C160.589355,126.096085 158.958267,127.264885 151.285278,126.658249 
	C151.285278,118.954628 151.285278,111.230598 151.285278,103.516045 
	C159.737961,102.412216 163.006607,105.979576 162.978409,116.626671 
z"/>
<path fill="#000000" opacity="1.000000" stroke="none" 
	d="
M108.969467,101.999634 
	C110.919312,103.156715 113.688454,104.222389 113.782166,105.486412 
	C114.244270,111.719368 114.486237,118.067253 113.699303,124.233360 
	C113.466934,126.054100 109.784920,128.074142 107.356285,128.671509 
	C106.333611,128.923065 103.348526,125.831039 103.181725,124.075867 
	C102.638123,118.355896 102.812958,112.544426 103.052971,106.782394 
	C103.185455,103.601524 105.295509,101.957809 108.969467,101.999634 
z"/>
</svg>